<svg width="1779" height="948" viewBox="0 0 1779 948" fill="none" xmlns="http://www.w3.org/2000/svg">
<path d="M893.318 474.842V2H2V239.895L893.318 474.842Z"/>
<path d="M893.318 474.842V2H2V239.895L893.318 474.842Z" fill="url(#paint0_linear_25_3)"/>
<path d="M893.318 2V474.842L1777 239.895V2H893.318Z"/>
<path d="M893.318 2V474.842L1777 239.895V2H893.318Z" fill="url(#paint1_linear_25_3)"/>
<path d="M893.318 474.842L1306.14 946H1777V239.895L893.318 474.842Z"/>
<path d="M893.318 474.842L1306.14 946H1777V239.895L893.318 474.842Z" fill="url(#paint2_linear_25_3)"/>
<path d="M893.318 474.842L2 239.895V946H476.419L893.318 474.842Z"/>
<path d="M893.318 474.842L2 239.895V946H476.419L893.318 474.842Z" fill="url(#paint3_linear_25_3)" fill-opacity="0.91"/>
<path d="M893.318 474.842V2M893.318 474.842L2 239.895M893.318 474.842L476.419 946M893.318 474.842L1306.14 946M893.318 474.842L1777 239.895M893.318 2H2V239.895M893.318 2H1777V239.895M2 239.895V946H476.419M476.419 946H1306.14M1306.14 946H1777V239.895" stroke="#F4F4F4" stroke-width="3"/>
<defs>
<linearGradient id="paint0_linear_25_3" x1="890" y1="474.407" x2="239.495" y2="-111.555" gradientUnits="userSpaceOnUse">
<stop offset="0.260417" stop-opacity="0.87"/>
<stop offset="1" stop-opacity="0"/>
</linearGradient>
<linearGradient id="paint1_linear_25_3" x1="889.5" y1="474.407" x2="1634.81" y2="-95.4911" gradientUnits="userSpaceOnUse">
<stop offset="0.140625" stop-opacity="0.94"/>
<stop offset="1" stop-opacity="0"/>
</linearGradient>
<linearGradient id="paint2_linear_25_3" x1="890" y1="474.407" x2="1639.62" y2="1064.8" gradientUnits="userSpaceOnUse">
<stop offset="0.114583" stop-opacity="0.89"/>
<stop offset="1" stop-opacity="0"/>
</linearGradient>
<linearGradient id="paint3_linear_25_3" x1="889.5" y1="474.407" x2="141.218" y2="1060.11" gradientUnits="userSpaceOnUse">
<stop offset="0.140625"/>
<stop offset="1" stop-opacity="0"/>
</linearGradient>
</defs>
</svg>
