<svg width="222" height="138" viewBox="0 0 222 138" fill="none" xmlns="http://www.w3.org/2000/svg">
<path d="M13.412 116.491C13.412 116.452 13.4511 116.432 13.5292 116.432C13.5877 116.432 13.6365 116.452 13.6756 116.491C13.7341 116.51 13.7634 116.53 13.7634 116.549C13.5682 118.072 13.4706 119.458 13.4706 120.708C13.4706 120.864 13.4413 120.981 13.3827 121.059C13.3242 121.118 13.207 121.147 13.0313 121.147H0.0878516C0.0292839 121.147 0 121.088 0 120.971C0 120.854 0.0292839 120.796 0.0878516 120.796C0.712575 120.796 1.16159 120.747 1.43491 120.649C1.72775 120.552 1.92298 120.366 2.02059 120.093C2.1182 119.8 2.16701 119.361 2.16701 118.775V105.217C2.16701 104.631 2.1182 104.201 2.02059 103.928C1.92298 103.655 1.72775 103.469 1.43491 103.372C1.14207 103.255 0.693052 103.196 0.0878516 103.196C0.0292839 103.196 0 103.137 0 103.02C0 102.903 0.0292839 102.845 0.0878516 102.845H12.5042C12.6995 102.845 12.7971 102.932 12.7971 103.108L12.8556 107.003C12.8556 107.042 12.7971 107.071 12.6799 107.091C12.5823 107.11 12.5237 107.091 12.5042 107.032C12.1919 105.9 11.6648 105.06 10.9229 104.514C10.181 103.967 9.20491 103.694 7.9945 103.694H7.11599C6.53031 103.694 6.10081 103.821 5.8275 104.075C5.55418 104.328 5.41752 104.719 5.41752 105.246V111.22H7.84808C8.9804 111.22 9.84915 111.025 10.4544 110.634C11.0596 110.244 11.3622 109.697 11.3622 108.994C11.3622 108.936 11.411 108.906 11.5086 108.906C11.6257 108.906 11.6843 108.936 11.6843 108.994L11.655 111.63L11.6843 113.035C11.7233 113.699 11.7428 114.226 11.7428 114.617C11.7428 114.656 11.6843 114.675 11.5671 114.675C11.45 114.675 11.3914 114.656 11.3914 114.617C11.3914 113.816 11.0791 113.192 10.4544 112.743C9.84915 112.274 8.97063 112.04 7.8188 112.04H5.41752V118.658C5.41752 119.224 5.5249 119.644 5.73964 119.917C5.95439 120.19 6.29604 120.327 6.76458 120.327H7.73095C9.25371 120.327 10.4739 120.015 11.3914 119.39C12.309 118.765 12.9825 117.799 13.412 116.491Z" fill="#E9E9E9"/>
<path d="M20.1402 105.802C20.1402 106.505 20.3159 107.13 20.6673 107.676C21.0383 108.223 21.4873 108.701 22.0144 109.111C22.5415 109.521 23.2541 110.019 24.1521 110.605C25.1283 111.23 25.9092 111.776 26.4948 112.245C27.0805 112.713 27.5783 113.289 27.9883 113.972C28.3983 114.636 28.6033 115.407 28.6033 116.286C28.6033 117.301 28.33 118.209 27.7833 119.009C27.2367 119.79 26.4753 120.405 25.4992 120.854C24.5426 121.284 23.4688 121.498 22.278 121.498C21.3994 121.498 20.4819 121.381 19.5253 121.147C18.5687 120.893 17.9244 120.62 17.5925 120.327C17.4949 120.249 17.4168 120.181 17.3583 120.122C17.3192 120.044 17.2997 119.927 17.2997 119.771L17.2118 115.115V115.085C17.2118 115.007 17.2606 114.968 17.3583 114.968C17.4559 114.949 17.5144 114.978 17.534 115.056C18.1196 116.247 18.6272 117.213 19.0567 117.955C19.5057 118.697 20.0621 119.351 20.7259 119.917C21.4092 120.483 22.1803 120.766 23.0393 120.766C23.8202 120.766 24.4645 120.561 24.9721 120.151C25.4797 119.722 25.7335 119 25.7335 117.984C25.7335 117.125 25.5382 116.374 25.1478 115.73C24.7768 115.085 24.3181 114.539 23.7714 114.09C23.2248 113.641 22.4732 113.104 21.5166 112.479C20.5795 111.874 19.8474 111.356 19.3203 110.927C18.8127 110.497 18.3734 109.98 18.0025 109.375C17.6316 108.77 17.4461 108.057 17.4461 107.237C17.4461 106.202 17.7389 105.334 18.3246 104.631C18.9298 103.909 19.701 103.381 20.6381 103.05C21.5751 102.698 22.561 102.522 23.5957 102.522C24.279 102.522 24.9721 102.591 25.6749 102.727C26.3777 102.845 26.9439 102.991 27.3734 103.167C27.5491 103.245 27.6662 103.333 27.7248 103.43C27.7833 103.508 27.8126 103.616 27.8126 103.752V108.057C27.8126 108.116 27.7638 108.165 27.6662 108.204C27.5686 108.223 27.51 108.204 27.4905 108.145L27.2562 107.589C26.7682 106.359 26.1922 105.314 25.5285 104.455C24.8842 103.596 23.9764 103.167 22.8051 103.167C22.0242 103.167 21.3799 103.391 20.8723 103.84C20.3843 104.289 20.1402 104.943 20.1402 105.802Z" fill="#E9E9E9"/>
<path d="M49.3077 102.522C50.1667 102.522 51.0647 102.601 52.0018 102.757C52.9389 102.893 53.671 103.079 54.1981 103.313C54.3738 103.372 54.4812 103.45 54.5202 103.547C54.5788 103.625 54.6276 103.772 54.6666 103.987L55.018 108.057C55.018 108.116 54.9692 108.155 54.8716 108.174C54.774 108.194 54.7154 108.165 54.6959 108.086C54.0321 106.544 53.1439 105.353 52.0311 104.514C50.9183 103.674 49.6298 103.255 48.1656 103.255C46.2329 103.255 44.7394 103.967 43.6852 105.392C42.6309 106.817 42.1038 108.731 42.1038 111.132C42.1038 112.928 42.3869 114.568 42.9531 116.052C43.5388 117.535 44.3489 118.716 45.3836 119.595C46.4379 120.454 47.6287 120.883 48.9563 120.883C50.2057 120.883 51.3185 120.474 52.2946 119.654C53.2903 118.814 54.1786 117.545 54.9595 115.847C54.979 115.769 55.0376 115.739 55.1352 115.759C55.2523 115.778 55.3109 115.817 55.3109 115.876L54.8716 119.859C54.8326 120.093 54.7838 120.249 54.7252 120.327C54.6862 120.386 54.5788 120.454 54.4031 120.532C52.6656 121.176 50.8792 121.498 49.0441 121.498C46.6624 121.498 44.6711 121.03 43.0702 120.093C41.4694 119.136 40.2882 117.936 39.5269 116.491C38.785 115.027 38.4141 113.504 38.4141 111.923C38.4141 110.068 38.9119 108.428 39.9075 107.003C40.9227 105.578 42.26 104.475 43.9194 103.694C45.5984 102.913 47.3945 102.522 49.3077 102.522Z" fill="#E9E9E9"/>
<path d="M67.2864 121.498C65.4708 121.498 63.8504 121.079 62.4253 120.239C61.0196 119.38 59.9264 118.228 59.1455 116.784C58.3841 115.32 58.0034 113.728 58.0034 112.01C58.0034 110 58.511 108.282 59.5262 106.856C60.5413 105.412 61.8396 104.328 63.4209 103.606C65.0218 102.884 66.6519 102.522 68.3113 102.522C70.166 102.522 71.7961 102.962 73.2017 103.84C74.6074 104.699 75.6811 105.841 76.423 107.266C77.1843 108.692 77.565 110.205 77.565 111.805C77.565 113.582 77.0965 115.212 76.1594 116.696C75.2223 118.18 73.9631 119.351 72.3818 120.21C70.82 121.069 69.1215 121.498 67.2864 121.498ZM68.2528 120.766C69.346 120.766 70.3222 120.454 71.1811 119.829C72.0597 119.185 72.743 118.258 73.231 117.047C73.7191 115.817 73.9631 114.353 73.9631 112.655C73.9631 110.859 73.6898 109.258 73.1432 107.852C72.5965 106.427 71.8059 105.314 70.7712 104.514C69.7365 103.713 68.5261 103.313 67.14 103.313C65.3634 103.313 63.9968 103.987 63.0402 105.334C62.0836 106.661 61.6053 108.526 61.6053 110.927C61.6053 112.821 61.8884 114.519 62.4545 116.022C63.0402 117.506 63.8309 118.668 64.8265 119.507C65.8417 120.347 66.9838 120.766 68.2528 120.766Z" fill="#E9E9E9"/>
<path d="M100.161 102.845C100.2 102.845 100.22 102.903 100.22 103.02C100.22 103.137 100.2 103.196 100.161 103.196C99.3803 103.196 98.7654 103.508 98.3163 104.133C97.8673 104.738 97.6428 105.558 97.6428 106.593V121.586C97.6428 121.645 97.594 121.684 97.4964 121.703C97.4183 121.723 97.3597 121.713 97.3207 121.674L83.5865 106.037V117.428C83.5865 118.463 83.8013 119.283 84.2308 119.888C84.6603 120.493 85.2557 120.796 86.0171 120.796C86.0561 120.796 86.0757 120.854 86.0757 120.971C86.0757 121.088 86.0561 121.147 86.0171 121.147C85.4705 121.147 85.0507 121.137 84.7579 121.118L83.1766 121.088L81.361 121.118C81.0291 121.137 80.5508 121.147 79.926 121.147C79.8675 121.147 79.8382 121.088 79.8382 120.971C79.8382 120.854 79.8675 120.796 79.926 120.796C80.785 120.796 81.4586 120.493 81.9466 119.888C82.4542 119.283 82.708 118.463 82.708 117.428V105.041C82.0638 104.338 81.5074 103.86 81.0388 103.606C80.5898 103.333 80.1213 103.196 79.6332 103.196C79.5942 103.196 79.5746 103.137 79.5746 103.02C79.5746 102.903 79.5942 102.845 79.6332 102.845L80.8631 102.874C81.1169 102.893 81.4879 102.903 81.9759 102.903L84.2015 102.874C84.4748 102.854 84.8067 102.845 85.1971 102.845C85.3533 102.845 85.4705 102.884 85.5486 102.962C85.6266 103.04 85.7633 103.206 85.9585 103.46C86.2904 103.909 86.5247 104.211 86.6613 104.367L96.7936 116.052V106.593C96.7936 105.539 96.5788 104.709 96.1493 104.104C95.7198 103.499 95.1244 103.196 94.363 103.196C94.324 103.196 94.3044 103.137 94.3044 103.02C94.3044 102.903 94.324 102.845 94.363 102.845L95.6222 102.874C96.2469 102.913 96.7741 102.932 97.2036 102.932C97.594 102.932 98.1406 102.913 98.8434 102.874L100.161 102.845Z" fill="#E9E9E9"/>
<path d="M105.618 105.802C105.618 106.505 105.794 107.13 106.145 107.676C106.516 108.223 106.965 108.701 107.492 109.111C108.02 109.521 108.732 110.019 109.63 110.605C110.606 111.23 111.387 111.776 111.973 112.245C112.559 112.713 113.056 113.289 113.466 113.972C113.876 114.636 114.081 115.407 114.081 116.286C114.081 117.301 113.808 118.209 113.261 119.009C112.715 119.79 111.953 120.405 110.977 120.854C110.021 121.284 108.947 121.498 107.756 121.498C106.878 121.498 105.96 121.381 105.003 121.147C104.047 120.893 103.403 120.62 103.071 120.327C102.973 120.249 102.895 120.181 102.836 120.122C102.797 120.044 102.778 119.927 102.778 119.771L102.69 115.115V115.085C102.69 115.007 102.739 114.968 102.836 114.968C102.934 114.949 102.993 114.978 103.012 115.056C103.598 116.247 104.105 117.213 104.535 117.955C104.984 118.697 105.54 119.351 106.204 119.917C106.887 120.483 107.658 120.766 108.517 120.766C109.298 120.766 109.943 120.561 110.45 120.151C110.958 119.722 111.212 119 111.212 117.984C111.212 117.125 111.016 116.374 110.626 115.73C110.255 115.085 109.796 114.539 109.25 114.09C108.703 113.641 107.951 113.104 106.995 112.479C106.058 111.874 105.325 111.356 104.798 110.927C104.291 110.497 103.852 109.98 103.481 109.375C103.11 108.77 102.924 108.057 102.924 107.237C102.924 106.202 103.217 105.334 103.803 104.631C104.408 103.909 105.179 103.381 106.116 103.05C107.053 102.698 108.039 102.522 109.074 102.522C109.757 102.522 110.45 102.591 111.153 102.727C111.856 102.845 112.422 102.991 112.851 103.167C113.027 103.245 113.144 103.333 113.203 103.43C113.261 103.508 113.291 103.616 113.291 103.752V108.057C113.291 108.116 113.242 108.165 113.144 108.204C113.047 108.223 112.988 108.204 112.969 108.145L112.734 107.589C112.246 106.359 111.67 105.314 111.007 104.455C110.362 103.596 109.455 103.167 108.283 103.167C107.502 103.167 106.858 103.391 106.35 103.84C105.862 104.289 105.618 104.943 105.618 105.802Z" fill="#E9E9E9"/>
<path d="M132.315 106.593C132.315 105.539 132.071 104.709 131.583 104.104C131.114 103.499 130.451 103.196 129.592 103.196C129.552 103.196 129.533 103.137 129.533 103.02C129.533 102.903 129.552 102.845 129.592 102.845L130.997 102.874C131.739 102.913 132.334 102.932 132.783 102.932C133.154 102.932 133.691 102.913 134.394 102.874L135.741 102.845C135.78 102.845 135.8 102.903 135.8 103.02C135.8 103.137 135.78 103.196 135.741 103.196C134.98 103.196 134.384 103.499 133.955 104.104C133.525 104.709 133.311 105.539 133.311 106.593V114.734C133.311 116.1 133.008 117.301 132.403 118.336C131.798 119.37 130.939 120.171 129.826 120.737C128.733 121.284 127.464 121.557 126.019 121.557C124.574 121.557 123.296 121.284 122.183 120.737C121.07 120.19 120.191 119.4 119.547 118.365C118.922 117.311 118.61 116.081 118.61 114.675V105.217C118.61 104.631 118.552 104.201 118.434 103.928C118.337 103.655 118.142 103.469 117.849 103.372C117.575 103.255 117.136 103.196 116.531 103.196C116.472 103.196 116.443 103.137 116.443 103.02C116.443 102.903 116.472 102.845 116.531 102.845L118.083 102.874C118.981 102.913 119.694 102.932 120.221 102.932C120.806 102.932 121.548 102.913 122.446 102.874L123.94 102.845C123.998 102.845 124.028 102.903 124.028 103.02C124.028 103.137 123.998 103.196 123.94 103.196C123.335 103.196 122.886 103.255 122.593 103.372C122.319 103.489 122.124 103.694 122.007 103.987C121.909 104.26 121.861 104.689 121.861 105.275V113.65C121.861 115.974 122.319 117.692 123.237 118.804C124.154 119.917 125.453 120.474 127.132 120.474C128.752 120.474 130.021 119.985 130.939 119.009C131.856 118.014 132.315 116.598 132.315 114.763V106.593Z" fill="#E9E9E9"/>
<path d="M142.422 118.658C142.422 119.165 142.461 119.536 142.539 119.771C142.617 119.985 142.763 120.132 142.978 120.21C143.212 120.288 143.583 120.327 144.091 120.327H145.086C146.609 120.327 147.927 119.927 149.04 119.126C150.152 118.306 150.894 117.203 151.265 115.817C151.265 115.778 151.304 115.759 151.382 115.759C151.421 115.759 151.461 115.778 151.5 115.817C151.558 115.837 151.587 115.856 151.587 115.876C151.412 117.809 151.324 119.419 151.324 120.708C151.324 120.864 151.285 120.981 151.207 121.059C151.148 121.118 151.041 121.147 150.885 121.147H137.063C137.024 121.147 137.004 121.088 137.004 120.971C137.004 120.854 137.024 120.796 137.063 120.796C137.687 120.796 138.136 120.747 138.41 120.649C138.702 120.552 138.898 120.366 138.995 120.093C139.112 119.8 139.171 119.361 139.171 118.775V105.217C139.171 104.631 139.112 104.201 138.995 103.928C138.898 103.655 138.702 103.469 138.41 103.372C138.117 103.255 137.668 103.196 137.063 103.196C137.024 103.196 137.004 103.137 137.004 103.02C137.004 102.903 137.024 102.845 137.063 102.845L138.556 102.874C139.454 102.913 140.196 102.932 140.782 102.932C141.367 102.932 142.109 102.913 143.007 102.874L144.501 102.845C144.559 102.845 144.589 102.903 144.589 103.02C144.589 103.137 144.559 103.196 144.501 103.196C143.896 103.196 143.446 103.255 143.154 103.372C142.861 103.469 142.666 103.665 142.568 103.957C142.47 104.231 142.422 104.66 142.422 105.246V118.658Z" fill="#E9E9E9"/>
<path d="M157.956 103.518C155.633 103.518 153.964 105.031 152.949 108.057C152.929 108.116 152.871 108.145 152.773 108.145C152.675 108.125 152.627 108.086 152.627 108.028C152.705 107.247 152.792 106.242 152.89 105.012C152.988 103.762 153.037 102.825 153.037 102.2C153.037 102.103 153.085 102.054 153.183 102.054C153.3 102.054 153.359 102.103 153.359 102.2C153.359 102.63 153.915 102.845 155.028 102.845C156.707 102.903 158.669 102.932 160.914 102.932C162.066 102.932 163.286 102.913 164.574 102.874L166.566 102.845C167.308 102.845 167.844 102.796 168.176 102.698C168.528 102.601 168.752 102.405 168.85 102.112C168.869 102.034 168.928 101.995 169.026 101.995C169.143 101.995 169.201 102.034 169.201 102.112C169.143 102.698 169.074 103.635 168.996 104.924C168.938 106.212 168.908 107.247 168.908 108.028C168.908 108.086 168.86 108.116 168.762 108.116C168.664 108.116 168.606 108.086 168.586 108.028C168.293 106.525 167.747 105.402 166.946 104.66C166.146 103.899 165.16 103.518 163.989 103.518C163.423 103.518 163.042 103.645 162.847 103.899C162.671 104.133 162.583 104.592 162.583 105.275V118.775C162.583 119.38 162.642 119.819 162.759 120.093C162.876 120.366 163.1 120.552 163.432 120.649C163.764 120.747 164.291 120.796 165.014 120.796C165.072 120.796 165.101 120.854 165.101 120.971C165.101 121.088 165.072 121.147 165.014 121.147C164.311 121.147 163.754 121.137 163.344 121.118L160.914 121.088L158.542 121.118C158.132 121.137 157.566 121.147 156.843 121.147C156.785 121.147 156.756 121.088 156.756 120.971C156.756 120.854 156.785 120.796 156.843 120.796C157.546 120.796 158.064 120.747 158.395 120.649C158.747 120.552 158.981 120.366 159.098 120.093C159.235 119.8 159.303 119.361 159.303 118.775V105.217C159.303 104.553 159.215 104.104 159.04 103.87C158.864 103.635 158.503 103.518 157.956 103.518Z" fill="#E9E9E9"/>
<path d="M176.92 118.775C176.92 119.38 176.969 119.819 177.066 120.093C177.164 120.366 177.349 120.552 177.623 120.649C177.915 120.747 178.374 120.796 178.999 120.796C179.058 120.796 179.087 120.854 179.087 120.971C179.087 121.088 179.058 121.147 178.999 121.147C178.355 121.147 177.847 121.137 177.476 121.118L175.251 121.088L173.084 121.118C172.693 121.137 172.166 121.147 171.502 121.147C171.463 121.147 171.444 121.088 171.444 120.971C171.444 120.854 171.463 120.796 171.502 120.796C172.127 120.796 172.586 120.747 172.879 120.649C173.171 120.552 173.367 120.366 173.464 120.093C173.581 119.8 173.64 119.361 173.64 118.775V105.217C173.64 104.631 173.581 104.201 173.464 103.928C173.367 103.655 173.171 103.469 172.879 103.372C172.586 103.255 172.127 103.196 171.502 103.196C171.463 103.196 171.444 103.137 171.444 103.02C171.444 102.903 171.463 102.845 171.502 102.845L173.084 102.874C173.982 102.913 174.704 102.932 175.251 102.932C175.856 102.932 176.607 102.913 177.505 102.874L178.999 102.845C179.058 102.845 179.087 102.903 179.087 103.02C179.087 103.137 179.058 103.196 178.999 103.196C178.394 103.196 177.945 103.255 177.652 103.372C177.359 103.489 177.164 103.694 177.066 103.987C176.969 104.26 176.92 104.689 176.92 105.275V118.775Z" fill="#E9E9E9"/>
<path d="M201.454 102.845C201.493 102.845 201.512 102.903 201.512 103.02C201.512 103.137 201.493 103.196 201.454 103.196C200.673 103.196 200.058 103.508 199.609 104.133C199.16 104.738 198.935 105.558 198.935 106.593V121.586C198.935 121.645 198.887 121.684 198.789 121.703C198.711 121.723 198.652 121.713 198.613 121.674L184.879 106.037V117.428C184.879 118.463 185.094 119.283 185.523 119.888C185.953 120.493 186.548 120.796 187.31 120.796C187.349 120.796 187.368 120.854 187.368 120.971C187.368 121.088 187.349 121.147 187.31 121.147C186.763 121.147 186.343 121.137 186.05 121.118L184.469 121.088L182.654 121.118C182.322 121.137 181.843 121.147 181.219 121.147C181.16 121.147 181.131 121.088 181.131 120.971C181.131 120.854 181.16 120.796 181.219 120.796C182.078 120.796 182.751 120.493 183.239 119.888C183.747 119.283 184.001 118.463 184.001 117.428V105.041C183.356 104.338 182.8 103.86 182.331 103.606C181.882 103.333 181.414 103.196 180.926 103.196C180.887 103.196 180.867 103.137 180.867 103.02C180.867 102.903 180.887 102.845 180.926 102.845L182.156 102.874C182.409 102.893 182.78 102.903 183.268 102.903L185.494 102.874C185.767 102.854 186.099 102.845 186.49 102.845C186.646 102.845 186.763 102.884 186.841 102.962C186.919 103.04 187.056 103.206 187.251 103.46C187.583 103.909 187.817 104.211 187.954 104.367L198.086 116.052V106.593C198.086 105.539 197.871 104.709 197.442 104.104C197.012 103.499 196.417 103.196 195.656 103.196C195.617 103.196 195.597 103.137 195.597 103.02C195.597 102.903 195.617 102.845 195.656 102.845L196.915 102.874C197.539 102.913 198.067 102.932 198.496 102.932C198.887 102.932 199.433 102.913 200.136 102.874L201.454 102.845Z" fill="#E9E9E9"/>
<path d="M213.793 121.498C211.645 121.498 209.771 121.088 208.17 120.269C206.569 119.449 205.349 118.336 204.51 116.93C203.67 115.505 203.25 113.924 203.25 112.186C203.25 110.312 203.729 108.643 204.685 107.179C205.661 105.695 206.989 104.553 208.668 103.752C210.366 102.932 212.26 102.522 214.349 102.522C215.267 102.522 216.194 102.601 217.131 102.757C218.068 102.893 218.82 103.079 219.386 103.313C219.562 103.372 219.669 103.45 219.708 103.547C219.766 103.625 219.806 103.772 219.825 103.987L220.206 108.057C220.206 108.116 220.157 108.155 220.059 108.174C219.962 108.194 219.893 108.165 219.854 108.086C219.171 106.583 218.224 105.412 217.014 104.572C215.823 103.733 214.456 103.313 212.914 103.313C210.923 103.313 209.4 104.006 208.346 105.392C207.311 106.778 206.794 108.672 206.794 111.073C206.794 113.006 207.126 114.734 207.789 116.257C208.453 117.76 209.371 118.931 210.542 119.771C211.733 120.591 213.06 121.001 214.525 121.001C215.325 121.001 215.94 120.913 216.37 120.737C216.799 120.561 217.111 120.22 217.307 119.712C217.502 119.205 217.599 118.453 217.599 117.457C217.599 116.442 217.541 115.739 217.424 115.349C217.307 114.939 217.053 114.666 216.662 114.529C216.291 114.392 215.637 114.324 214.7 114.324C214.583 114.324 214.525 114.246 214.525 114.09C214.525 114.031 214.534 113.982 214.554 113.943C214.593 113.885 214.632 113.855 214.671 113.855C216.331 113.953 217.668 114.002 218.683 114.002C219.679 114.002 220.713 113.972 221.787 113.914C221.826 113.914 221.855 113.943 221.875 114.002C221.914 114.041 221.934 114.08 221.934 114.119C221.934 114.256 221.885 114.324 221.787 114.324C221.436 114.304 221.192 114.373 221.055 114.529C220.918 114.666 220.83 114.958 220.791 115.407C220.752 115.837 220.733 116.618 220.733 117.75C220.733 118.629 220.762 119.253 220.821 119.624C220.899 119.995 220.938 120.229 220.938 120.327C220.938 120.444 220.909 120.522 220.85 120.561C220.811 120.6 220.723 120.639 220.586 120.678C218.068 121.225 215.803 121.498 213.793 121.498Z" fill="#E9E9E9"/>
<path d="M47.7849 133.717C47.7849 134.298 47.6929 134.832 47.5087 135.32C47.3246 135.804 47.0647 136.221 46.7289 136.571C46.3931 136.921 45.9888 137.194 45.5158 137.389C45.0465 137.58 44.5266 137.676 43.9562 137.676C43.3857 137.676 42.8658 137.58 42.3965 137.389C41.9272 137.194 41.5246 136.921 41.1888 136.571C40.8531 136.221 40.5931 135.804 40.409 135.32C40.2249 134.832 40.1328 134.298 40.1328 133.717C40.1328 133.136 40.2249 132.603 40.409 132.119C40.5931 131.632 40.8531 131.213 41.1888 130.863C41.5246 130.509 41.9272 130.235 42.3965 130.04C42.8658 129.845 43.3857 129.747 43.9562 129.747C44.5266 129.747 45.0465 129.845 45.5158 130.04C45.9888 130.235 46.3931 130.509 46.7289 130.863C47.0647 131.213 47.3246 131.632 47.5087 132.119C47.6929 132.603 47.7849 133.136 47.7849 133.717ZM46.7072 133.717C46.7072 133.24 46.6423 132.812 46.5123 132.433C46.3823 132.054 46.1982 131.735 45.9599 131.475C45.7216 131.211 45.4328 131.009 45.0934 130.868C44.7541 130.728 44.375 130.657 43.9562 130.657C43.541 130.657 43.1637 130.728 42.8243 130.868C42.485 131.009 42.1943 131.211 41.9524 131.475C41.7141 131.735 41.53 132.054 41.4 132.433C41.2701 132.812 41.2051 133.24 41.2051 133.717C41.2051 134.193 41.2701 134.621 41.4 135C41.53 135.376 41.7141 135.695 41.9524 135.959C42.1943 136.219 42.485 136.419 42.8243 136.56C43.1637 136.697 43.541 136.766 43.9562 136.766C44.375 136.766 44.7541 136.697 45.0934 136.56C45.4328 136.419 45.7216 136.219 45.9599 135.959C46.1982 135.695 46.3823 135.376 46.5123 135C46.6423 134.621 46.7072 134.193 46.7072 133.717Z" fill="#E9E9E9"/>
<path d="M57.3626 129.834V137.594H56.8373C56.7543 137.594 56.6839 137.58 56.6261 137.551C56.5719 137.522 56.5178 137.473 56.4636 137.405L51.9742 131.556C51.9814 131.646 51.9868 131.735 51.9904 131.821C51.994 131.908 51.9958 131.989 51.9958 132.065V137.594H51.0752V129.834H51.6168C51.6637 129.834 51.7034 129.838 51.7359 129.845C51.7684 129.848 51.7973 129.857 51.8225 129.872C51.8478 129.883 51.8731 129.901 51.8984 129.926C51.9236 129.948 51.9507 129.977 51.9796 130.013L56.4691 135.856C56.4618 135.762 56.4546 135.672 56.4474 135.585C56.4438 135.495 56.442 135.41 56.442 135.331V129.834H57.3626Z" fill="#E9E9E9"/>
<path d="M65.5365 136.712V137.594H61.1337V129.834H62.1789V136.712H65.5365Z" fill="#E9E9E9"/>
<path d="M69.535 137.594H68.4844V129.834H69.535V137.594Z" fill="#E9E9E9"/>
<path d="M79.5946 129.834V137.594H79.0693C78.9862 137.594 78.9158 137.58 78.8581 137.551C78.8039 137.522 78.7498 137.473 78.6956 137.405L74.2061 131.556C74.2134 131.646 74.2188 131.735 74.2224 131.821C74.226 131.908 74.2278 131.989 74.2278 132.065V137.594H73.3072V129.834H73.8487C73.8956 129.834 73.9354 129.838 73.9679 129.845C74.0003 129.848 74.0292 129.857 74.0545 129.872C74.0798 129.883 74.105 129.901 74.1303 129.926C74.1556 129.948 74.1827 129.977 74.2115 130.013L78.701 135.856C78.6938 135.762 78.6866 135.672 78.6793 135.585C78.6757 135.495 78.6739 135.41 78.6739 135.331V129.834H79.5946Z" fill="#E9E9E9"/>
<path d="M88.1529 136.739L88.1475 137.594H83.3656V129.834H88.1475V130.69H84.4162V133.267H87.4381V134.091H84.4162V136.739H88.1529Z" fill="#E9E9E9"/>
<path d="M99.7238 134.713L98.5053 131.556C98.4692 131.462 98.4313 131.354 98.3916 131.231C98.3519 131.105 98.3139 130.971 98.2778 130.83C98.202 131.123 98.1244 131.367 98.045 131.562L96.8265 134.713H99.7238ZM101.912 137.594H101.099C101.005 137.594 100.93 137.571 100.872 137.524C100.814 137.477 100.771 137.417 100.742 137.345L100.016 135.472H96.534L95.8084 137.345C95.7867 137.41 95.7452 137.468 95.6838 137.519C95.6224 137.569 95.5466 137.594 95.4564 137.594H94.644L97.7471 129.834H98.8086L101.912 137.594Z" fill="#E9E9E9"/>
<path d="M109.967 135.991C110.024 135.991 110.075 136.015 110.118 136.062L110.535 136.511C110.218 136.88 109.831 137.167 109.376 137.372C108.925 137.578 108.378 137.681 107.736 137.681C107.18 137.681 106.674 137.585 106.219 137.394C105.764 137.199 105.376 136.928 105.055 136.582C104.734 136.231 104.484 135.813 104.308 135.325C104.131 134.838 104.042 134.302 104.042 133.717C104.042 133.132 104.134 132.596 104.318 132.108C104.502 131.621 104.761 131.202 105.093 130.852C105.429 130.502 105.829 130.231 106.295 130.04C106.761 129.845 107.275 129.747 107.838 129.747C108.391 129.747 108.878 129.836 109.301 130.013C109.723 130.19 110.095 130.43 110.416 130.733L110.07 131.215C110.048 131.251 110.019 131.282 109.983 131.307C109.95 131.329 109.905 131.339 109.848 131.339C109.783 131.339 109.703 131.305 109.609 131.237C109.515 131.164 109.393 131.085 109.241 130.998C109.089 130.912 108.9 130.834 108.672 130.765C108.445 130.693 108.165 130.657 107.833 130.657C107.432 130.657 107.066 130.728 106.734 130.868C106.402 131.006 106.114 131.206 105.873 131.469C105.634 131.733 105.448 132.054 105.315 132.433C105.181 132.812 105.114 133.24 105.114 133.717C105.114 134.201 105.183 134.632 105.32 135.011C105.461 135.39 105.651 135.712 105.889 135.975C106.131 136.235 106.414 136.434 106.739 136.571C107.068 136.708 107.421 136.777 107.801 136.777C108.032 136.777 108.239 136.764 108.423 136.739C108.611 136.71 108.783 136.667 108.938 136.609C109.097 136.551 109.243 136.479 109.376 136.392C109.514 136.302 109.649 136.195 109.783 136.073C109.844 136.018 109.905 135.991 109.967 135.991Z" fill="#E9E9E9"/>
<path d="M118.841 135.991C118.898 135.991 118.949 136.015 118.992 136.062L119.409 136.511C119.091 136.88 118.705 137.167 118.25 137.372C117.799 137.578 117.252 137.681 116.609 137.681C116.053 137.681 115.548 137.585 115.093 137.394C114.638 137.199 114.25 136.928 113.929 136.582C113.607 136.231 113.358 135.813 113.181 135.325C113.004 134.838 112.916 134.302 112.916 133.717C112.916 133.132 113.008 132.596 113.192 132.108C113.376 131.621 113.634 131.202 113.967 130.852C114.302 130.502 114.703 130.231 115.169 130.04C115.635 129.845 116.149 129.747 116.712 129.747C117.265 129.747 117.752 129.836 118.174 130.013C118.597 130.19 118.969 130.43 119.29 130.733L118.943 131.215C118.922 131.251 118.893 131.282 118.857 131.307C118.824 131.329 118.779 131.339 118.721 131.339C118.656 131.339 118.577 131.305 118.483 131.237C118.389 131.164 118.267 131.085 118.115 130.998C117.963 130.912 117.774 130.834 117.546 130.765C117.319 130.693 117.039 130.657 116.707 130.657C116.306 130.657 115.94 130.728 115.607 130.868C115.275 131.006 114.988 131.206 114.746 131.469C114.508 131.733 114.322 132.054 114.189 132.433C114.055 132.812 113.988 133.24 113.988 133.717C113.988 134.201 114.057 134.632 114.194 135.011C114.335 135.39 114.524 135.712 114.763 135.975C115.005 136.235 115.288 136.434 115.613 136.571C115.941 136.708 116.295 136.777 116.674 136.777C116.905 136.777 117.113 136.764 117.297 136.739C117.485 136.71 117.656 136.667 117.812 136.609C117.97 136.551 118.117 136.479 118.25 136.392C118.387 136.302 118.523 136.195 118.656 136.073C118.718 136.018 118.779 135.991 118.841 135.991Z" fill="#E9E9E9"/>
<path d="M129.437 133.717C129.437 134.298 129.344 134.832 129.16 135.32C128.976 135.804 128.716 136.221 128.38 136.571C128.045 136.921 127.64 137.194 127.167 137.389C126.698 137.58 126.178 137.676 125.608 137.676C125.037 137.676 124.517 137.58 124.048 137.389C123.579 137.194 123.176 136.921 122.84 136.571C122.505 136.221 122.245 135.804 122.061 135.32C121.876 134.832 121.784 134.298 121.784 133.717C121.784 133.136 121.876 132.603 122.061 132.119C122.245 131.632 122.505 131.213 122.84 130.863C123.176 130.509 123.579 130.235 124.048 130.04C124.517 129.845 125.037 129.747 125.608 129.747C126.178 129.747 126.698 129.845 127.167 130.04C127.64 130.235 128.045 130.509 128.38 130.863C128.716 131.213 128.976 131.632 129.16 132.119C129.344 132.603 129.437 133.136 129.437 133.717ZM128.359 133.717C128.359 133.24 128.294 132.812 128.164 132.433C128.034 132.054 127.85 131.735 127.611 131.475C127.373 131.211 127.084 131.009 126.745 130.868C126.406 130.728 126.027 130.657 125.608 130.657C125.193 130.657 124.815 130.728 124.476 130.868C124.137 131.009 123.846 131.211 123.604 131.475C123.366 131.735 123.182 132.054 123.052 132.433C122.922 132.812 122.857 133.24 122.857 133.717C122.857 134.193 122.922 134.621 123.052 135C123.182 135.376 123.366 135.695 123.604 135.959C123.846 136.219 124.137 136.419 124.476 136.56C124.815 136.697 125.193 136.766 125.608 136.766C126.027 136.766 126.406 136.697 126.745 136.56C127.084 136.419 127.373 136.219 127.611 135.959C127.85 135.695 128.034 135.376 128.164 135C128.294 134.621 128.359 134.193 128.359 133.717Z" fill="#E9E9E9"/>
<path d="M135.722 136.76C136.043 136.76 136.33 136.706 136.583 136.598C136.835 136.49 137.048 136.338 137.222 136.143C137.399 135.948 137.532 135.715 137.622 135.444C137.716 135.174 137.763 134.876 137.763 134.551V129.834H138.808V134.551C138.808 134.999 138.736 135.414 138.592 135.796C138.451 136.179 138.247 136.511 137.98 136.793C137.716 137.071 137.393 137.289 137.01 137.448C136.628 137.607 136.198 137.686 135.722 137.686C135.245 137.686 134.815 137.607 134.433 137.448C134.05 137.289 133.725 137.071 133.458 136.793C133.191 136.511 132.985 136.179 132.841 135.796C132.7 135.414 132.629 134.999 132.629 134.551V129.834H133.674V134.545C133.674 134.87 133.72 135.168 133.81 135.439C133.904 135.71 134.037 135.943 134.211 136.138C134.388 136.333 134.602 136.486 134.855 136.598C135.111 136.706 135.4 136.76 135.722 136.76Z" fill="#E9E9E9"/>
<path d="M148.766 129.834V137.594H148.241C148.158 137.594 148.087 137.58 148.029 137.551C147.975 137.522 147.921 137.473 147.867 137.405L143.377 131.556C143.385 131.646 143.39 131.735 143.394 131.821C143.397 131.908 143.399 131.989 143.399 132.065V137.594H142.479V129.834H143.02C143.067 129.834 143.107 129.838 143.139 129.845C143.172 129.848 143.201 129.857 143.226 129.872C143.251 129.883 143.276 129.901 143.302 129.926C143.327 129.948 143.354 129.977 143.383 130.013L147.872 135.856C147.865 135.762 147.858 135.672 147.851 135.585C147.847 135.495 147.845 135.41 147.845 135.331V129.834H148.766Z" fill="#E9E9E9"/>
<path d="M157.785 130.717H155.272V137.594H154.227V130.717H151.708V129.834H157.785V130.717Z" fill="#E9E9E9"/>
<path d="M161.774 137.594H160.723V129.834H161.774V137.594Z" fill="#E9E9E9"/>
<path d="M171.833 129.834V137.594H171.308C171.225 137.594 171.155 137.58 171.097 137.551C171.043 137.522 170.989 137.473 170.935 137.405L166.445 131.556C166.452 131.646 166.458 131.735 166.461 131.821C166.465 131.908 166.467 131.989 166.467 132.065V137.594H165.546V129.834H166.088C166.135 129.834 166.174 129.838 166.207 129.845C166.239 129.848 166.268 129.857 166.293 129.872C166.319 129.883 166.344 129.901 166.369 129.926C166.395 129.948 166.422 129.977 166.45 130.013L170.94 135.856C170.933 135.762 170.925 135.672 170.918 135.585C170.915 135.495 170.913 135.41 170.913 135.331V129.834H171.833Z" fill="#E9E9E9"/>
<path d="M181.908 133.863V136.842C181.518 137.123 181.101 137.334 180.657 137.475C180.217 137.612 179.733 137.681 179.206 137.681C178.581 137.681 178.018 137.585 177.516 137.394C177.014 137.199 176.585 136.928 176.227 136.582C175.874 136.231 175.601 135.813 175.41 135.325C175.218 134.838 175.123 134.302 175.123 133.717C175.123 133.125 175.215 132.585 175.399 132.098C175.586 131.61 175.852 131.193 176.195 130.847C176.538 130.496 176.955 130.226 177.446 130.034C177.937 129.843 178.486 129.747 179.092 129.747C179.399 129.747 179.684 129.771 179.948 129.818C180.211 129.861 180.455 129.926 180.679 130.013C180.903 130.096 181.11 130.199 181.302 130.321C181.493 130.441 181.672 130.576 181.838 130.728L181.54 131.204C181.493 131.276 181.432 131.323 181.356 131.345C181.284 131.363 181.202 131.345 181.112 131.291C181.025 131.24 180.926 131.179 180.814 131.107C180.702 131.034 180.565 130.966 180.403 130.901C180.244 130.832 180.054 130.774 179.834 130.728C179.617 130.681 179.359 130.657 179.06 130.657C178.623 130.657 178.227 130.729 177.874 130.874C177.52 131.015 177.218 131.219 176.969 131.486C176.72 131.749 176.529 132.071 176.395 132.45C176.262 132.825 176.195 133.248 176.195 133.717C176.195 134.204 176.263 134.641 176.401 135.027C176.541 135.41 176.74 135.737 176.996 136.008C177.256 136.275 177.57 136.479 177.939 136.62C178.307 136.76 178.72 136.831 179.179 136.831C179.54 136.831 179.859 136.791 180.137 136.712C180.419 136.629 180.693 136.515 180.96 136.37V134.665H179.753C179.684 134.665 179.628 134.645 179.585 134.605C179.545 134.565 179.525 134.517 179.525 134.459V133.863H181.908Z" fill="#E9E9E9"/>
<g clip-path="url(#clip0_28_31)">
<path fill-rule="evenodd" clip-rule="evenodd" d="M125.983 21.6862C130.554 19.0272 132.797 15.5782 132.651 10.2506C132.632 6.83053 132.622 3.42008 132.622 0C126.688 6.10155 116.393 15.2797 106.569 23.6034C99.0857 29.9434 96.5334 34.9715 105.676 45.1836C101.231 39.4321 102.745 35.0775 108.996 31.5129C114.606 28.2952 120.392 24.9425 125.983 21.6862Z" fill="url(#paint0_linear_28_31)"/>
<path d="M96.3387 47.3127C99.1439 47.7655 104.22 48.3532 105.676 45.1836C96.5334 34.9715 99.0857 29.9434 106.569 23.6034C116.393 15.2797 126.688 6.10155 132.622 0C121.33 8.38803 110.061 16.7953 98.8139 25.2219C95.1543 28.489 92.8818 33.0139 92.4561 37.881C92.2814 41.2722 93.1938 45.3859 96.3387 47.3127Z" fill="url(#paint1_linear_28_31)"/>
<path d="M105.656 45.1836C105.656 45.1836 104.976 44.6345 103.851 43.6422C98.5313 38.9312 91.5814 31.6478 98.7934 25.2219C96.4795 26.9984 94.4333 29.0942 92.7171 31.4455C87.6406 38.2182 88.6112 49.1336 88.8539 57.2647C88.9704 61.1858 93.6295 62.0817 96.6191 60.4825C99.8514 58.7676 103.326 56.8408 106.481 55.1452C111.325 52.5537 108.995 47.8041 105.656 45.1836Z" fill="url(#paint2_linear_28_31)"/>
<path fill-rule="evenodd" clip-rule="evenodd" d="M95.6886 69.365C91.1168 72.0433 88.8746 75.4826 89.0202 80.8102C89.0396 84.2335 89.0493 87.6504 89.0493 91.0608C95.6466 84.5134 101.777 79.0224 113.161 68.8256C115.315 66.8963 118.705 64.6419 119.469 63.933C125.065 58.7451 119.789 49.6551 116.014 45.8676C120.469 51.6095 118.946 55.9737 112.704 59.5383C107.065 62.7561 101.289 66.1087 95.6886 69.365Z" fill="url(#paint3_linear_28_31)"/>
<path d="M125.352 43.7385C122.556 43.276 117.47 42.6884 116.014 45.8676C119.789 49.6551 125.065 58.7451 119.469 63.933C118.705 64.6419 115.315 66.8963 113.161 68.8256C101.777 79.0224 95.6466 84.5134 89.0493 91.0608C100.341 82.6728 111.617 74.2687 122.877 65.8486C126.543 62.5743 128.816 58.0379 129.235 53.1606C129.409 49.7694 128.497 45.6653 125.352 43.7385Z" fill="url(#paint4_linear_28_31)"/>
<path d="M116.014 45.8868C116.014 45.8868 116.694 46.4263 117.82 47.4283C123.148 52.1393 130.089 59.413 122.877 65.8486C125.186 64.0671 127.232 61.972 128.953 59.625C134.059 52.8811 133.069 41.9272 132.836 33.7961C132.719 29.8847 128.07 28.9791 125.07 30.5784C121.809 32.3028 118.334 34.2297 115.179 35.9156C110.345 38.5361 112.733 43.2567 116.014 45.8868Z" fill="url(#paint5_linear_28_31)"/>
</g>
<defs>
<linearGradient id="paint0_linear_28_31" x1="144.792" y1="23.7684" x2="98.0451" y2="33.315" gradientUnits="userSpaceOnUse">
<stop stop-color="#6219FF"/>
<stop offset="1" stop-color="#190050"/>
</linearGradient>
<linearGradient id="paint1_linear_28_31" x1="132.753" y1="2.43353e-06" x2="97.2216" y2="33.3018" gradientUnits="userSpaceOnUse">
<stop stop-color="#1F025C"/>
<stop offset="0.447917" stop-color="#8951FF"/>
<stop offset="0.651042" stop-color="#AB83FF"/>
<stop offset="1" stop-color="#4400D6"/>
</linearGradient>
<linearGradient id="paint2_linear_28_31" x1="113.023" y1="44.3551" x2="88.5935" y2="42.6927" gradientUnits="userSpaceOnUse">
<stop offset="0.06" stop-color="#DDDDDD"/>
<stop offset="0.28" stop-color="#F7F7F7"/>
<stop offset="0.64" stop-color="#D6D6D6"/>
<stop offset="1" stop-color="#939393"/>
</linearGradient>
<linearGradient id="paint3_linear_28_31" x1="88.9324" y1="73.7688" x2="127.018" y2="54.0138" gradientUnits="userSpaceOnUse">
<stop stop-color="#FF0101"/>
<stop offset="0.432292" stop-color="#FF5151"/>
<stop offset="0.723958" stop-color="#EE3737"/>
<stop offset="1" stop-color="#7C0101"/>
</linearGradient>
<linearGradient id="paint4_linear_28_31" x1="88.9195" y1="89.6718" x2="122.283" y2="63.7761" gradientUnits="userSpaceOnUse">
<stop stop-color="#5C0000"/>
<stop offset="1" stop-color="#FF0000"/>
<stop offset="1" stop-color="#FF0000"/>
</linearGradient>
<linearGradient id="paint5_linear_28_31" x1="134.817" y1="40.7711" x2="114.763" y2="53.6034" gradientUnits="userSpaceOnUse">
<stop offset="0.06" stop-color="#DFDFDF"/>
<stop offset="0.286458" stop-color="#F7F7F7"/>
<stop offset="0.64" stop-color="#D0D0D0"/>
<stop offset="0.993848" stop-color="#8F8F8F"/>
</linearGradient>
<clipPath id="clip0_28_31">
<rect width="44.4464" height="91.0609" fill="white" transform="translate(88.6113)"/>
</clipPath>
</defs>
</svg>
