<svg width="23" height="52" viewBox="0 0 23 52" fill="none" xmlns="http://www.w3.org/2000/svg">
<mask id="mask0_143_12" style="mask-type:luminance" maskUnits="userSpaceOnUse" x="0" y="0" width="23" height="52">
<path d="M22.6778 0H0V51.2871H22.6778V0Z" fill="white"/>
</mask>
<g mask="url(#mask0_143_12)">
<path fill-rule="evenodd" clip-rule="evenodd" d="M19.0667 12.214C21.3994 10.7165 22.5434 8.77392 22.4689 5.77332C22.4592 3.84707 22.4541 1.92625 22.4541 0C19.4265 3.4365 14.174 8.60579 9.16129 13.2938C5.34316 16.8646 4.0409 19.6966 8.70592 25.4482C6.43765 22.2089 7.21029 19.7563 10.3997 17.7486C13.2623 15.9364 16.214 14.0481 19.0667 12.214Z" fill="url(#paint0_linear_143_12)"/>
<path d="M3.94166 26.6473C5.37295 26.9024 7.96318 27.2334 8.70602 25.4482C4.041 19.6966 5.34326 16.8646 9.16139 13.2938C14.1741 8.60579 19.4266 3.4365 22.4542 0C16.6929 4.72428 10.943 9.45941 5.20458 14.2054C3.33735 16.0455 2.17786 18.594 1.96065 21.3352C1.87152 23.2452 2.33705 25.5621 3.94166 26.6473Z" fill="url(#paint1_linear_143_12)"/>
<path d="M8.69653 25.4482C8.69653 25.4482 8.34989 25.1389 7.77537 24.5801C5.06137 21.9267 1.51534 17.8246 5.1951 14.2054C4.01443 15.206 2.97045 16.3864 2.0948 17.7107C-0.49542 21.5252 -0.000142469 27.6729 0.123639 32.2525C0.18308 34.4609 2.56033 34.9655 4.08571 34.0648C5.73492 33.0989 7.50791 32.0137 9.11752 31.0587C11.5888 29.5992 10.4002 26.9241 8.69653 25.4482Z" fill="url(#paint2_linear_143_12)"/>
<path fill-rule="evenodd" clip-rule="evenodd" d="M3.61088 39.0676C1.27822 40.5761 0.134187 42.5131 0.208476 45.5137C0.218375 47.4418 0.223323 49.3662 0.223323 51.287C3.58945 47.5994 6.7173 44.5068 12.5256 38.7638C13.6246 37.6772 15.3543 36.4075 15.7444 36.0082C18.5995 33.0863 15.9076 27.9666 13.9816 25.8334C16.2548 29.0674 15.4772 31.5254 12.2927 33.533C9.41528 35.3453 6.46851 37.2336 3.61088 39.0676Z" fill="url(#paint3_linear_143_12)"/>
<path d="M18.7462 24.6343C17.3199 24.3738 14.7247 24.0428 13.9819 25.8334C15.9079 27.9666 18.5998 33.0862 15.7447 36.0082C15.3546 36.4074 13.6249 37.6771 12.5259 38.7638C6.71761 44.5068 3.58976 47.5994 0.223633 51.287C5.98512 46.5628 11.7384 41.8294 17.4833 37.0871C19.3539 35.2429 20.5137 32.6879 20.7272 29.941C20.8164 28.031 20.3508 25.7195 18.7462 24.6343Z" fill="url(#paint4_linear_143_12)"/>
<path d="M13.9817 25.8442C13.9817 25.8442 14.3284 26.1481 14.9028 26.7124C17.6218 29.3658 21.1629 33.4624 17.4831 37.0871C18.6615 36.0837 19.7051 34.9037 20.5835 33.5818C23.1884 29.7835 22.6833 23.6141 22.5644 19.0345C22.5052 16.8316 20.1328 16.3215 18.6024 17.2223C16.9383 18.1935 15.1653 19.2788 13.5557 20.2283C11.0894 21.7042 12.3077 24.3629 13.9817 25.8442Z" fill="url(#paint5_linear_143_12)"/>
</g>
<defs>
<linearGradient id="paint0_linear_143_12" x1="28.6636" y1="13.3868" x2="4.63974" y2="17.8313" gradientUnits="userSpaceOnUse">
<stop stop-color="#6219FF"/>
<stop offset="1" stop-color="#190050"/>
</linearGradient>
<linearGradient id="paint1_linear_143_12" x1="22.5216" y1="6.87923e-07" x2="2.73277" y2="16.8018" gradientUnits="userSpaceOnUse">
<stop stop-color="#1F025C"/>
<stop offset="0.447917" stop-color="#8951FF"/>
<stop offset="0.651042" stop-color="#AB83FF"/>
<stop offset="1" stop-color="#4400D6"/>
</linearGradient>
<linearGradient id="paint2_linear_143_12" x1="12.4555" y1="24.9816" x2="-0.0195355" y2="24.2125" gradientUnits="userSpaceOnUse">
<stop offset="0.06" stop-color="#DDDDDD"/>
<stop offset="0.28" stop-color="#F7F7F7"/>
<stop offset="0.64" stop-color="#D6D6D6"/>
<stop offset="1" stop-color="#939393"/>
</linearGradient>
<linearGradient id="paint3_linear_143_12" x1="0.163627" y1="41.5479" x2="20.3639" y2="32.0558" gradientUnits="userSpaceOnUse">
<stop stop-color="#FF0101"/>
<stop offset="0.432292" stop-color="#FF5151"/>
<stop offset="0.723958" stop-color="#EE3737"/>
<stop offset="1" stop-color="#7C0101"/>
</linearGradient>
<linearGradient id="paint4_linear_143_12" x1="0.157405" y1="50.5047" x2="18.4109" y2="37.6699" gradientUnits="userSpaceOnUse">
<stop stop-color="#5C0000"/>
<stop offset="1" stop-color="#FF0000"/>
</linearGradient>
<linearGradient id="paint5_linear_143_12" x1="23.5757" y1="22.963" x2="12.7809" y2="29.2203" gradientUnits="userSpaceOnUse">
<stop offset="0.06" stop-color="#DFDFDF"/>
<stop offset="0.286458" stop-color="#F7F7F7"/>
<stop offset="0.64" stop-color="#D0D0D0"/>
<stop offset="0.993848" stop-color="#8F8F8F"/>
</linearGradient>
</defs>
</svg>
