<svg width="174" height="152" viewBox="0 0 174 152" fill="none" xmlns="http://www.w3.org/2000/svg">
<path d="M5.88397 114.284C3.31916 114.284 1.47638 115.955 0.355625 119.295C0.334072 119.36 0.269413 119.392 0.161648 119.392C0.0538825 119.371 0 119.328 0 119.263C0.086212 118.401 0.183201 117.291 0.290966 115.933C0.398731 114.554 0.452613 113.519 0.452613 112.83C0.452613 112.722 0.506496 112.668 0.614261 112.668C0.743579 112.668 0.808238 112.722 0.808238 112.83C0.808238 113.304 1.4225 113.541 2.65102 113.541C4.50458 113.605 6.67065 113.638 9.14925 113.638C10.4209 113.638 11.7679 113.616 13.1904 113.573L15.3888 113.541C16.2079 113.541 16.8006 113.487 17.167 113.379C17.5549 113.271 17.8028 113.056 17.9105 112.733C17.9321 112.646 17.9968 112.603 18.1045 112.603C18.2338 112.603 18.2985 112.646 18.2985 112.733C18.2338 113.379 18.1584 114.414 18.0722 115.836C18.0075 117.259 17.9752 118.401 17.9752 119.263C17.9752 119.328 17.9213 119.36 17.8136 119.36C17.7058 119.36 17.6411 119.328 17.6196 119.263C17.2963 117.604 16.6928 116.364 15.8091 115.545C14.9255 114.705 13.837 114.284 12.5438 114.284C11.9188 114.284 11.4985 114.425 11.283 114.705C11.089 114.963 10.992 115.47 10.992 116.224V131.128C10.992 131.796 11.0567 132.281 11.186 132.583C11.3153 132.885 11.5632 133.089 11.9296 133.197C12.296 133.305 12.8779 133.359 13.6754 133.359C13.74 133.359 13.7724 133.423 13.7724 133.553C13.7724 133.682 13.74 133.747 13.6754 133.747C12.8995 133.747 12.2852 133.736 11.8326 133.714L9.14925 133.682L6.53056 133.714C6.07795 133.736 5.45291 133.747 4.65545 133.747C4.59079 133.747 4.55846 133.682 4.55846 133.553C4.55846 133.423 4.59079 133.359 4.65545 133.359C5.43136 133.359 6.00251 133.305 6.36891 133.197C6.75687 133.089 7.0155 132.885 7.14482 132.583C7.29569 132.26 7.37113 131.775 7.37113 131.128V116.16C7.37113 115.427 7.27414 114.931 7.08016 114.672C6.88619 114.414 6.48745 114.284 5.88397 114.284Z" fill="#E9E9E9"/>
<path d="M32.5235 113.185C33.4718 113.185 34.4633 113.271 35.4978 113.444C36.5323 113.595 37.3406 113.799 37.9225 114.058C38.1165 114.123 38.235 114.209 38.2781 114.317C38.3428 114.403 38.3967 114.565 38.4398 114.802L38.8277 119.295C38.8277 119.36 38.7739 119.403 38.6661 119.425C38.5583 119.446 38.4937 119.414 38.4721 119.328C37.7393 117.625 36.7586 116.31 35.5301 115.384C34.3016 114.457 32.8791 113.993 31.2626 113.993C29.1289 113.993 27.4801 114.78 26.3162 116.353C25.1524 117.927 24.5704 120.039 24.5704 122.69C24.5704 124.673 24.8829 126.483 25.508 128.121C26.1546 129.759 27.049 131.063 28.1913 132.033C29.3552 132.982 30.6699 133.456 32.1355 133.456C33.5149 133.456 34.7434 133.003 35.8211 132.098C36.9203 131.171 37.901 129.77 38.7631 127.895C38.7846 127.809 38.8493 127.777 38.9571 127.798C39.0864 127.82 39.151 127.863 39.151 127.927L38.6661 132.324C38.623 132.583 38.5691 132.755 38.5044 132.842C38.4613 132.906 38.3428 132.982 38.1488 133.068C36.2306 133.779 34.2585 134.135 32.2325 134.135C29.6031 134.135 27.4046 133.617 25.6373 132.583C23.87 131.527 22.566 130.201 21.7254 128.606C20.9064 126.99 20.4969 125.309 20.4969 123.563C20.4969 121.515 21.0465 119.705 22.1457 118.132C23.2665 116.558 24.7428 115.341 26.5749 114.478C28.4284 113.616 30.4113 113.185 32.5235 113.185Z" fill="#E9E9E9"/>
<path d="M64.1521 128.606C64.1521 128.563 64.1952 128.542 64.2814 128.542C64.3461 128.542 64.4 128.563 64.4431 128.606C64.5077 128.628 64.5401 128.649 64.5401 128.671C64.3245 130.352 64.2168 131.882 64.2168 133.262C64.2168 133.434 64.1844 133.564 64.1198 133.65C64.0551 133.714 63.9258 133.747 63.7318 133.747H49.4422C49.3775 133.747 49.3452 133.682 49.3452 133.553C49.3452 133.423 49.3775 133.359 49.4422 133.359C50.1319 133.359 50.6276 133.305 50.9293 133.197C51.2526 133.089 51.4682 132.885 51.5759 132.583C51.6837 132.26 51.7376 131.775 51.7376 131.128V116.16C51.7376 115.513 51.6837 115.039 51.5759 114.737C51.4682 114.435 51.2526 114.231 50.9293 114.123C50.606 113.993 50.1103 113.929 49.4422 113.929C49.3775 113.929 49.3452 113.864 49.3452 113.735C49.3452 113.605 49.3775 113.541 49.4422 113.541H63.1499C63.3654 113.541 63.4732 113.638 63.4732 113.832L63.5378 118.132C63.5378 118.175 63.4732 118.207 63.3439 118.229C63.2361 118.25 63.1714 118.229 63.1499 118.164C62.805 116.914 62.2231 115.987 61.4041 115.384C60.5851 114.78 59.5074 114.478 58.1711 114.478H57.2013C56.5547 114.478 56.0805 114.618 55.7788 114.899C55.477 115.179 55.3261 115.61 55.3261 116.192V122.787H58.0095C59.2596 122.787 60.2187 122.572 60.8868 122.14C61.555 121.709 61.889 121.106 61.889 120.33C61.889 120.265 61.9429 120.233 62.0507 120.233C62.18 120.233 62.2447 120.265 62.2447 120.33L62.2123 123.24L62.2447 124.791C62.2878 125.524 62.3093 126.106 62.3093 126.537C62.3093 126.58 62.2447 126.602 62.1153 126.602C61.986 126.602 61.9214 126.58 61.9214 126.537C61.9214 125.654 61.5765 124.964 60.8868 124.468C60.2187 123.951 59.2488 123.692 57.9772 123.692H55.3261V130.999C55.3261 131.624 55.4447 132.087 55.6818 132.389C55.9189 132.691 56.296 132.842 56.8133 132.842H57.8802C59.5613 132.842 60.9084 132.497 61.9214 131.807C62.9344 131.117 63.6779 130.05 64.1521 128.606Z" fill="#E9E9E9"/>
<path d="M84.4149 117.679C84.4149 116.515 84.1455 115.599 83.6066 114.931C83.0894 114.263 82.3566 113.929 81.4082 113.929C81.3651 113.929 81.3436 113.864 81.3436 113.735C81.3436 113.605 81.3651 113.541 81.4082 113.541L82.96 113.573C83.7791 113.616 84.4364 113.638 84.9321 113.638C85.3416 113.638 85.9344 113.616 86.7103 113.573L88.1974 113.541C88.2405 113.541 88.2621 113.605 88.2621 113.735C88.2621 113.864 88.2405 113.929 88.1974 113.929C87.3569 113.929 86.6995 114.263 86.2253 114.931C85.7512 115.599 85.5141 116.515 85.5141 117.679V126.667C85.5141 128.175 85.18 129.501 84.5119 130.643C83.8437 131.785 82.8954 132.669 81.6669 133.294C80.4599 133.898 79.0589 134.199 77.464 134.199C75.8691 134.199 74.4574 133.898 73.2289 133.294C72.0003 132.691 71.0305 131.818 70.3192 130.675C69.6295 129.512 69.2847 128.154 69.2847 126.602V116.16C69.2847 115.513 69.22 115.039 69.0907 114.737C68.9829 114.435 68.7674 114.231 68.4441 114.123C68.1424 113.993 67.6574 113.929 66.9893 113.929C66.9246 113.929 66.8923 113.864 66.8923 113.735C66.8923 113.605 66.9246 113.541 66.9893 113.541L68.7027 113.573C69.6942 113.616 70.4809 113.638 71.0628 113.638C71.7094 113.638 72.5284 113.616 73.5198 113.573L75.1686 113.541C75.2333 113.541 75.2656 113.605 75.2656 113.735C75.2656 113.864 75.2333 113.929 75.1686 113.929C74.5005 113.929 74.0048 113.993 73.6815 114.123C73.3797 114.252 73.1642 114.478 73.0349 114.802C72.9271 115.103 72.8732 115.578 72.8732 116.224V125.47C72.8732 128.035 73.3797 129.932 74.3927 131.16C75.4057 132.389 76.839 133.003 78.6925 133.003C80.4814 133.003 81.8824 132.464 82.8954 131.387C83.9084 130.288 84.4149 128.725 84.4149 126.699V117.679Z" fill="#E9E9E9"/>
<path d="M111.576 133.359C111.619 133.359 111.64 133.423 111.64 133.553C111.64 133.682 111.619 133.747 111.576 133.747H105.821C105.347 133.747 104.463 132.863 103.17 131.096C101.877 129.307 100.314 126.817 98.4822 123.628C98.3098 123.649 98.062 123.66 97.7387 123.66C96.8981 123.66 96.3054 123.649 95.9605 123.628V131.128C95.9605 131.796 96.0144 132.281 96.1222 132.583C96.23 132.885 96.4347 133.089 96.7365 133.197C97.0597 133.305 97.5662 133.359 98.2559 133.359C98.299 133.359 98.3206 133.423 98.3206 133.553C98.3206 133.682 98.299 133.747 98.2559 133.747C97.5447 133.747 96.9843 133.736 96.5748 133.714L94.1178 133.682L91.7577 133.714C91.3266 133.736 90.7447 133.747 90.0119 133.747C89.9473 133.747 89.9149 133.682 89.9149 133.553C89.9149 133.423 89.9473 133.359 90.0119 133.359C90.7016 133.359 91.1973 133.305 91.4991 133.197C91.8224 133.089 92.0379 132.885 92.1457 132.583C92.275 132.26 92.3396 131.775 92.3396 131.128V116.16C92.3396 115.513 92.2858 115.039 92.178 114.737C92.0702 114.435 91.8547 114.231 91.5314 114.123C91.2081 113.993 90.7124 113.929 90.0442 113.929C90.0011 113.929 89.9796 113.864 89.9796 113.735C89.9796 113.605 90.0011 113.541 90.0442 113.541L91.7577 113.573C92.7491 113.616 93.5358 113.638 94.1178 113.638C94.7428 113.638 95.4325 113.605 96.1869 113.541C96.4239 113.519 96.7257 113.498 97.0921 113.476C97.48 113.455 97.9326 113.444 98.4499 113.444C100.433 113.444 101.963 113.81 103.041 114.543C104.14 115.254 104.69 116.257 104.69 117.55C104.69 118.541 104.388 119.489 103.784 120.395C103.181 121.3 102.394 122.033 101.424 122.593C103.148 125.309 104.593 127.432 105.756 128.962C106.942 130.492 107.987 131.613 108.892 132.324C109.819 133.014 110.714 133.359 111.576 133.359ZM95.9605 122.69C96.4778 122.776 97.1029 122.819 97.8357 122.819C98.6116 122.819 99.2258 122.701 99.6784 122.464C100.131 122.227 100.454 121.817 100.648 121.235C100.864 120.653 100.972 119.834 100.972 118.778C100.972 117.011 100.713 115.793 100.196 115.125C99.6784 114.457 98.9349 114.123 97.965 114.123C97.2322 114.123 96.7149 114.284 96.4132 114.608C96.1114 114.931 95.9605 115.47 95.9605 116.224V122.69Z" fill="#E9E9E9"/>
<path d="M121.577 134.135C119.573 134.135 117.784 133.671 116.211 132.745C114.659 131.796 113.452 130.525 112.59 128.93C111.749 127.313 111.329 125.557 111.329 123.66C111.329 121.44 111.889 119.543 113.01 117.97C114.131 116.375 115.564 115.179 117.31 114.381C119.077 113.584 120.877 113.185 122.709 113.185C124.756 113.185 126.556 113.67 128.108 114.64C129.66 115.588 130.845 116.849 131.664 118.423C132.505 119.996 132.925 121.666 132.925 123.434C132.925 125.395 132.408 127.195 131.373 128.833C130.339 130.471 128.949 131.764 127.203 132.712C125.478 133.661 123.603 134.135 121.577 134.135ZM122.644 133.326C123.851 133.326 124.929 132.982 125.877 132.292C126.847 131.581 127.601 130.557 128.14 129.221C128.679 127.863 128.949 126.246 128.949 124.371C128.949 122.388 128.647 120.621 128.043 119.069C127.44 117.496 126.567 116.267 125.425 115.384C124.282 114.5 122.946 114.058 121.416 114.058C119.454 114.058 117.946 114.802 116.89 116.289C115.834 117.754 115.305 119.813 115.305 122.464C115.305 124.554 115.618 126.43 116.243 128.089C116.89 129.727 117.762 131.01 118.862 131.936C119.982 132.863 121.243 133.326 122.644 133.326Z" fill="#E9E9E9"/>
<path d="M141.48 130.999C141.48 131.688 141.556 132.195 141.707 132.518C141.857 132.82 142.138 133.036 142.547 133.165C142.978 133.294 143.657 133.359 144.584 133.359C144.649 133.359 144.681 133.423 144.681 133.553C144.681 133.682 144.649 133.747 144.584 133.747C143.7 133.747 143.01 133.736 142.515 133.714L139.702 133.682L137.342 133.714C136.911 133.736 136.329 133.747 135.596 133.747C135.532 133.747 135.499 133.682 135.499 133.553C135.499 133.423 135.532 133.359 135.596 133.359C136.286 133.359 136.782 133.305 137.083 133.197C137.407 133.089 137.622 132.885 137.73 132.583C137.838 132.26 137.892 131.775 137.892 131.128V116.16C137.892 115.513 137.838 115.039 137.73 114.737C137.622 114.435 137.407 114.231 137.083 114.123C136.76 113.993 136.264 113.929 135.596 113.929C135.532 113.929 135.499 113.864 135.499 113.735C135.499 113.605 135.532 113.541 135.596 113.541L137.31 113.573C138.301 113.616 139.088 113.638 139.67 113.638C140.187 113.638 140.801 113.605 141.513 113.541C141.793 113.519 142.148 113.498 142.579 113.476C143.01 113.455 143.506 113.444 144.067 113.444C146.265 113.444 148 113.907 149.272 114.834C150.543 115.739 151.179 117.151 151.179 119.069C151.179 120.405 150.834 121.537 150.145 122.464C149.455 123.391 148.56 124.091 147.461 124.565C146.384 125.039 145.274 125.276 144.131 125.276C143.549 125.276 143.043 125.223 142.612 125.115C142.569 125.115 142.547 125.061 142.547 124.953C142.547 124.888 142.558 124.824 142.579 124.759C142.623 124.695 142.666 124.673 142.709 124.695C143.032 124.781 143.398 124.824 143.808 124.824C144.799 124.824 145.618 124.36 146.265 123.434C146.933 122.507 147.267 121.192 147.267 119.489C147.267 117.787 146.901 116.472 146.168 115.545C145.457 114.618 144.411 114.155 143.032 114.155C142.429 114.155 142.019 114.295 141.804 114.575C141.588 114.856 141.48 115.405 141.48 116.224V130.999Z" fill="#E9E9E9"/>
<path d="M173.684 133.359C173.792 133.359 173.846 133.423 173.846 133.553C173.846 133.682 173.792 133.747 173.684 133.747C173.253 133.747 172.585 133.725 171.68 133.682C170.731 133.639 170.053 133.617 169.643 133.617C169.104 133.617 168.447 133.639 167.671 133.682C166.938 133.725 166.356 133.747 165.925 133.747C165.839 133.747 165.796 133.682 165.796 133.553C165.796 133.423 165.839 133.359 165.925 133.359C166.486 133.359 166.884 133.305 167.121 133.197C167.38 133.068 167.509 132.852 167.509 132.551C167.509 132.184 167.294 131.57 166.863 130.708L163.5 124.08H157.746L155.45 129.156C155.17 129.781 155.03 130.363 155.03 130.902C155.03 131.678 155.3 132.281 155.838 132.712C156.399 133.143 157.142 133.359 158.069 133.359C158.177 133.359 158.231 133.423 158.231 133.553C158.231 133.682 158.177 133.747 158.069 133.747C157.681 133.747 157.121 133.725 156.388 133.682C155.569 133.639 154.858 133.617 154.254 133.617C153.672 133.617 152.972 133.639 152.153 133.682C151.42 133.725 150.827 133.747 150.375 133.747C150.288 133.747 150.245 133.682 150.245 133.553C150.245 133.423 150.288 133.359 150.375 133.359C150.978 133.359 151.485 133.24 151.894 133.003C152.304 132.745 152.713 132.303 153.123 131.678C153.532 131.031 154.017 130.083 154.577 128.833L161.593 113.412C161.636 113.347 161.733 113.315 161.884 113.315C162.056 113.315 162.153 113.347 162.175 113.412L170.257 129.318C171.012 130.848 171.637 131.904 172.132 132.486C172.628 133.068 173.145 133.359 173.684 133.359ZM158.166 123.175H163.048L160.461 118.067L158.166 123.175Z" fill="#E9E9E9"/>
<path d="M11.8273 144.312H9.05315V151.905H7.89926V144.312H5.11914V143.337H11.8273V144.312Z" fill="#E9E9E9"/>
<path d="M17.4452 147.486C17.78 147.486 18.0749 147.447 18.33 147.367C18.5891 147.283 18.8043 147.167 18.9757 147.02C19.1511 146.869 19.2826 146.689 19.3703 146.482C19.458 146.275 19.5019 146.045 19.5019 145.794C19.5019 145.284 19.3344 144.9 18.9996 144.64C18.6648 144.381 18.1626 144.252 17.493 144.252H16.2255V147.486H17.4452ZM21.4031 151.905H20.3747C20.1635 151.905 20.0081 151.823 19.9084 151.66L17.6843 148.598C17.6166 148.503 17.5428 148.435 17.4631 148.395C17.3874 148.351 17.2678 148.329 17.1044 148.329H16.2255V151.905H15.0716V143.337H17.493C18.0351 143.337 18.5034 143.393 18.898 143.505C19.2926 143.612 19.6174 143.77 19.8725 143.977C20.1316 144.184 20.3229 144.435 20.4465 144.73C20.5701 145.021 20.6318 145.348 20.6318 145.711C20.6318 146.014 20.584 146.297 20.4883 146.56C20.3927 146.823 20.2532 147.06 20.0698 147.271C19.8905 147.478 19.6693 147.656 19.4062 147.803C19.1471 147.951 18.8522 148.062 18.5213 148.138C18.6688 148.222 18.7964 148.343 18.904 148.503L21.4031 151.905Z" fill="#E9E9E9"/>
<path d="M29.0912 148.724L27.746 145.238C27.7061 145.135 27.6643 145.015 27.6204 144.88C27.5766 144.74 27.5347 144.593 27.4949 144.437C27.4112 144.76 27.3255 145.029 27.2378 145.244L25.8926 148.724H29.0912ZM31.5066 151.905H30.6098C30.5062 151.905 30.4225 151.879 30.3587 151.827C30.2949 151.775 30.2471 151.709 30.2152 151.63L29.414 149.561H25.5697L24.7686 151.63C24.7446 151.701 24.6988 151.765 24.6311 151.821C24.5633 151.877 24.4796 151.905 24.3799 151.905H23.4831L26.909 143.337H28.0808L31.5066 151.905Z" fill="#E9E9E9"/>
<path d="M41.548 143.337V151.905H40.9681C40.8764 151.905 40.7987 151.889 40.7349 151.857C40.6751 151.825 40.6153 151.771 40.5555 151.695L35.5992 145.238C35.6071 145.338 35.6131 145.436 35.6171 145.531C35.6211 145.627 35.6231 145.717 35.6231 145.8V151.905H34.6067V143.337H35.2046C35.2564 143.337 35.3002 143.341 35.3361 143.349C35.372 143.353 35.4038 143.363 35.4317 143.379C35.4596 143.391 35.4875 143.411 35.5155 143.439C35.5434 143.463 35.5732 143.495 35.6051 143.534L40.5615 149.985C40.5535 149.882 40.5456 149.782 40.5376 149.687C40.5336 149.587 40.5316 149.493 40.5316 149.406V143.337H41.548Z" fill="#E9E9E9"/>
<path d="M50.0937 144.676C50.0578 144.736 50.018 144.782 49.9741 144.814C49.9343 144.842 49.8844 144.856 49.8246 144.856C49.7569 144.856 49.6772 144.822 49.5855 144.754C49.4938 144.686 49.3782 144.613 49.2387 144.533C49.1032 144.449 48.9378 144.373 48.7425 144.306C48.5512 144.238 48.318 144.204 48.043 144.204C47.7839 144.204 47.5547 144.24 47.3554 144.312C47.1601 144.379 46.9947 144.473 46.8592 144.593C46.7277 144.712 46.628 144.854 46.5602 145.017C46.4925 145.177 46.4586 145.35 46.4586 145.537C46.4586 145.776 46.5164 145.976 46.632 146.135C46.7516 146.291 46.907 146.424 47.0983 146.536C47.2936 146.647 47.5129 146.745 47.756 146.829C48.0031 146.908 48.2542 146.992 48.5093 147.08C48.7684 147.167 49.0195 147.267 49.2626 147.379C49.5098 147.486 49.729 147.624 49.9203 147.791C50.1156 147.959 50.2711 148.164 50.3866 148.407C50.5062 148.65 50.566 148.949 50.566 149.304C50.566 149.679 50.5022 150.031 50.3747 150.362C50.2471 150.689 50.0598 150.974 49.8127 151.217C49.5695 151.46 49.2686 151.652 48.9099 151.791C48.5552 151.931 48.1506 152 47.6962 152C47.1382 152 46.632 151.901 46.1776 151.701C45.7232 151.498 45.3346 151.225 45.0118 150.882L45.3466 150.332C45.3784 150.288 45.4163 150.253 45.4602 150.225C45.508 150.193 45.5598 150.177 45.6156 150.177C45.6674 150.177 45.7252 150.199 45.789 150.243C45.8567 150.282 45.9325 150.334 46.0162 150.398C46.0999 150.462 46.1955 150.532 46.3032 150.607C46.4108 150.683 46.5323 150.753 46.6679 150.817C46.8074 150.88 46.9648 150.934 47.1402 150.978C47.3156 151.018 47.5129 151.038 47.7321 151.038C48.0071 151.038 48.2522 151 48.4675 150.924C48.6827 150.848 48.8641 150.743 49.0115 150.607C49.163 150.468 49.2786 150.302 49.3583 150.111C49.438 149.92 49.4779 149.706 49.4779 149.471C49.4779 149.212 49.4181 149.001 49.2985 148.838C49.1829 148.67 49.0295 148.531 48.8381 148.419C48.6468 148.307 48.4276 148.214 48.1805 148.138C47.9334 148.058 47.6823 147.979 47.4272 147.899C47.1721 147.815 46.921 147.72 46.6738 147.612C46.4267 147.504 46.2075 147.365 46.0162 147.193C45.8249 147.022 45.6694 146.809 45.5498 146.554C45.4342 146.295 45.3765 145.976 45.3765 145.597C45.3765 145.294 45.4342 145.001 45.5498 144.718C45.6694 144.435 45.8408 144.184 46.064 143.965C46.2912 143.746 46.5682 143.57 46.8951 143.439C47.2259 143.307 47.6045 143.241 48.031 143.241C48.5093 143.241 48.9438 143.317 49.3344 143.469C49.729 143.62 50.0757 143.839 50.3747 144.126L50.0937 144.676Z" fill="#E9E9E9"/>
<path d="M56.7058 147.779C57.0366 147.779 57.3276 147.735 57.5787 147.648C57.8338 147.56 58.047 147.439 58.2184 147.283C58.3938 147.124 58.5253 146.934 58.613 146.715C58.7007 146.496 58.7446 146.255 58.7446 145.992C58.7446 145.446 58.5752 145.019 58.2364 144.712C57.9016 144.405 57.3914 144.252 56.7058 144.252H55.3307V147.779H56.7058ZM56.7058 143.337C57.2479 143.337 57.7182 143.401 58.1168 143.528C58.5194 143.652 58.8522 143.829 59.1152 144.061C59.3783 144.292 59.5736 144.571 59.7012 144.898C59.8327 145.224 59.8985 145.589 59.8985 145.992C59.8985 146.39 59.8287 146.755 59.6892 147.086C59.5497 147.417 59.3444 147.702 59.0734 147.941C58.8063 148.18 58.4735 148.367 58.0749 148.503C57.6803 148.634 57.224 148.7 56.7058 148.7H55.3307V151.905H54.1768V143.337H56.7058Z" fill="#E9E9E9"/>
<path d="M71.2471 147.624C71.2471 148.266 71.1455 148.855 70.9422 149.394C70.7389 149.928 70.452 150.388 70.0813 150.775C69.7106 151.161 69.2642 151.462 68.742 151.677C68.2239 151.889 67.6499 151.994 67.0202 151.994C66.3904 151.994 65.8164 151.889 65.2983 151.677C64.7801 151.462 64.3357 151.161 63.965 150.775C63.5943 150.388 63.3074 149.928 63.1041 149.394C62.9008 148.855 62.7992 148.266 62.7992 147.624C62.7992 146.982 62.9008 146.394 63.1041 145.86C63.3074 145.322 63.5943 144.86 63.965 144.473C64.3357 144.082 64.7801 143.78 65.2983 143.564C65.8164 143.349 66.3904 143.241 67.0202 143.241C67.6499 143.241 68.2239 143.349 68.742 143.564C69.2642 143.78 69.7106 144.082 70.0813 144.473C70.452 144.86 70.7389 145.322 70.9422 145.86C71.1455 146.394 71.2471 146.982 71.2471 147.624ZM70.0574 147.624C70.0574 147.098 69.9856 146.625 69.8421 146.207C69.6986 145.788 69.4954 145.436 69.2323 145.149C68.9692 144.858 68.6504 144.635 68.2757 144.479C67.901 144.324 67.4825 144.246 67.0202 144.246C66.5618 144.246 66.1453 144.324 65.7706 144.479C65.3959 144.635 65.0751 144.858 64.808 145.149C64.545 145.436 64.3417 145.788 64.1982 146.207C64.0547 146.625 63.983 147.098 63.983 147.624C63.983 148.15 64.0547 148.622 64.1982 149.041C64.3417 149.455 64.545 149.808 64.808 150.099C65.0751 150.386 65.3959 150.607 65.7706 150.763C66.1453 150.914 66.5618 150.99 67.0202 150.99C67.4825 150.99 67.901 150.914 68.2757 150.763C68.6504 150.607 68.9692 150.386 69.2323 150.099C69.4954 149.808 69.6986 149.455 69.8421 149.041C69.9856 148.622 70.0574 148.15 70.0574 147.624Z" fill="#E9E9E9"/>
<path d="M77.2532 147.486C77.588 147.486 77.8829 147.447 78.138 147.367C78.3971 147.283 78.6123 147.167 78.7837 147.02C78.9591 146.869 79.0906 146.689 79.1783 146.482C79.266 146.275 79.3098 146.045 79.3098 145.794C79.3098 145.284 79.1424 144.9 78.8076 144.64C78.4728 144.381 77.9706 144.252 77.301 144.252H76.0335V147.486H77.2532ZM81.2111 151.905H80.1827C79.9715 151.905 79.816 151.823 79.7164 151.66L77.4923 148.598C77.4245 148.503 77.3508 148.435 77.2711 148.395C77.1954 148.351 77.0758 148.329 76.9124 148.329H76.0335V151.905H74.8796V143.337H77.301C77.8431 143.337 78.3114 143.393 78.706 143.505C79.1006 143.612 79.4254 143.77 79.6805 143.977C79.9396 144.184 80.1309 144.435 80.2545 144.73C80.378 145.021 80.4398 145.348 80.4398 145.711C80.4398 146.014 80.392 146.297 80.2963 146.56C80.2007 146.823 80.0612 147.06 79.8778 147.271C79.6985 147.478 79.4773 147.656 79.2142 147.803C78.9551 147.951 78.6602 148.062 78.3293 148.138C78.4768 148.222 78.6044 148.343 78.712 148.503L81.2111 151.905Z" fill="#E9E9E9"/>
<path d="M89.8625 144.312H87.0884V151.905H85.9345V144.312H83.1544V143.337H89.8625V144.312Z" fill="#E9E9E9"/>
<path d="M103.792 150.135C103.856 150.135 103.911 150.161 103.959 150.213L104.42 150.709C104.069 151.115 103.642 151.432 103.14 151.66C102.642 151.887 102.038 152 101.329 152C100.715 152 100.157 151.895 99.6546 151.683C99.1524 151.468 98.7239 151.169 98.3691 150.787C98.0144 150.4 97.7394 149.938 97.5441 149.4C97.3488 148.861 97.2511 148.27 97.2511 147.624C97.2511 146.978 97.3528 146.386 97.556 145.848C97.7593 145.31 98.0443 144.848 98.411 144.461C98.7817 144.074 99.2241 143.776 99.7383 143.564C100.252 143.349 100.82 143.241 101.442 143.241C102.052 143.241 102.59 143.339 103.056 143.534C103.523 143.73 103.933 143.995 104.288 144.33L103.905 144.862C103.882 144.902 103.85 144.935 103.81 144.963C103.774 144.987 103.724 144.999 103.66 144.999C103.589 144.999 103.501 144.961 103.397 144.886C103.294 144.806 103.158 144.718 102.991 144.623C102.823 144.527 102.614 144.441 102.363 144.365C102.112 144.286 101.803 144.246 101.436 144.246C100.994 144.246 100.589 144.324 100.223 144.479C99.8559 144.631 99.539 144.852 99.2719 145.143C99.0089 145.434 98.8036 145.788 98.6561 146.207C98.5087 146.625 98.4349 147.098 98.4349 147.624C98.4349 148.158 98.5107 148.634 98.6621 149.053C98.8176 149.471 99.0268 149.826 99.2899 150.117C99.5569 150.404 99.8698 150.623 100.229 150.775C100.591 150.926 100.982 151.002 101.4 151.002C101.655 151.002 101.885 150.988 102.088 150.96C102.295 150.928 102.485 150.88 102.656 150.817C102.831 150.753 102.993 150.673 103.14 150.577C103.292 150.478 103.441 150.36 103.589 150.225C103.656 150.165 103.724 150.135 103.792 150.135Z" fill="#E9E9E9"/>
<path d="M115.49 147.624C115.49 148.266 115.388 148.855 115.185 149.394C114.982 149.928 114.695 150.388 114.324 150.775C113.953 151.161 113.507 151.462 112.985 151.677C112.467 151.889 111.893 151.994 111.263 151.994C110.633 151.994 110.059 151.889 109.541 151.677C109.023 151.462 108.578 151.161 108.208 150.775C107.837 150.388 107.55 149.928 107.347 149.394C107.144 148.855 107.042 148.266 107.042 147.624C107.042 146.982 107.144 146.394 107.347 145.86C107.55 145.322 107.837 144.86 108.208 144.473C108.578 144.082 109.023 143.78 109.541 143.564C110.059 143.349 110.633 143.241 111.263 143.241C111.893 143.241 112.467 143.349 112.985 143.564C113.507 143.78 113.953 144.082 114.324 144.473C114.695 144.86 114.982 145.322 115.185 145.86C115.388 146.394 115.49 146.982 115.49 147.624ZM114.3 147.624C114.3 147.098 114.228 146.625 114.085 146.207C113.941 145.788 113.738 145.436 113.475 145.149C113.212 144.858 112.893 144.635 112.518 144.479C112.144 144.324 111.725 144.246 111.263 144.246C110.805 144.246 110.388 144.324 110.013 144.479C109.639 144.635 109.318 144.858 109.051 145.149C108.788 145.436 108.584 145.788 108.441 146.207C108.297 146.625 108.226 147.098 108.226 147.624C108.226 148.15 108.297 148.622 108.441 149.041C108.584 149.455 108.788 149.808 109.051 150.099C109.318 150.386 109.639 150.607 110.013 150.763C110.388 150.914 110.805 150.99 111.263 150.99C111.725 150.99 112.144 150.914 112.518 150.763C112.893 150.607 113.212 150.386 113.475 150.099C113.738 149.808 113.941 149.455 114.085 149.041C114.228 148.622 114.3 148.15 114.3 147.624Z" fill="#E9E9E9"/>
<path d="M128.037 143.337V151.905H127.02V145.609C127.02 145.525 127.022 145.436 127.026 145.34C127.034 145.244 127.042 145.147 127.05 145.047L124.109 150.404C124.017 150.583 123.877 150.673 123.69 150.673H123.523C123.335 150.673 123.196 150.583 123.104 150.404L120.103 145.023C120.127 145.234 120.139 145.43 120.139 145.609V151.905H119.122V143.337H119.977C120.081 143.337 120.161 143.347 120.216 143.367C120.272 143.387 120.326 143.443 120.378 143.534L123.337 148.808C123.385 148.903 123.431 149.003 123.475 149.107C123.523 149.21 123.567 149.316 123.606 149.423C123.646 149.316 123.688 149.21 123.732 149.107C123.776 148.999 123.824 148.897 123.875 148.802L126.781 143.534C126.829 143.443 126.881 143.387 126.937 143.367C126.996 143.347 127.078 143.337 127.182 143.337H128.037Z" fill="#E9E9E9"/>
<path d="M134.729 147.779C135.06 147.779 135.351 147.735 135.602 147.648C135.857 147.56 136.071 147.439 136.242 147.283C136.417 147.124 136.549 146.934 136.637 146.715C136.724 146.496 136.768 146.255 136.768 145.992C136.768 145.446 136.599 145.019 136.26 144.712C135.925 144.405 135.415 144.252 134.729 144.252H133.354V147.779H134.729ZM134.729 143.337C135.271 143.337 135.742 143.401 136.14 143.528C136.543 143.652 136.876 143.829 137.139 144.061C137.402 144.292 137.597 144.571 137.725 144.898C137.856 145.224 137.922 145.589 137.922 145.992C137.922 146.39 137.852 146.755 137.713 147.086C137.573 147.417 137.368 147.702 137.097 147.941C136.83 148.18 136.497 148.367 136.098 148.503C135.704 148.634 135.248 148.7 134.729 148.7H133.354V151.905H132.2V143.337H134.729Z" fill="#E9E9E9"/>
<path d="M145.309 148.724L143.964 145.238C143.924 145.135 143.882 145.015 143.838 144.88C143.794 144.74 143.753 144.593 143.713 144.437C143.629 144.76 143.543 145.029 143.456 145.244L142.11 148.724H145.309ZM147.725 151.905H146.828C146.724 151.905 146.64 151.879 146.577 151.827C146.513 151.775 146.465 151.709 146.433 151.63L145.632 149.561H141.788L140.986 151.63C140.963 151.701 140.917 151.765 140.849 151.821C140.781 151.877 140.698 151.905 140.598 151.905H139.701L143.127 143.337H144.299L147.725 151.905Z" fill="#E9E9E9"/>
<path d="M157.766 143.337V151.905H157.186C157.094 151.905 157.017 151.889 156.953 151.857C156.893 151.825 156.833 151.771 156.773 151.695L151.817 145.238C151.825 145.338 151.831 145.436 151.835 145.531C151.839 145.627 151.841 145.717 151.841 145.8V151.905H150.825V143.337H151.422C151.474 143.337 151.518 143.341 151.554 143.349C151.59 143.353 151.622 143.363 151.65 143.379C151.678 143.391 151.705 143.411 151.733 143.439C151.761 143.463 151.791 143.495 151.823 143.534L156.779 149.985C156.771 149.882 156.763 149.782 156.756 149.687C156.752 149.587 156.75 149.493 156.75 149.406V143.337H157.766Z" fill="#E9E9E9"/>
<path d="M165.146 148.491V151.905H163.986V148.491L160.847 143.337H161.863C161.967 143.337 162.049 143.363 162.109 143.415C162.168 143.463 162.22 143.526 162.264 143.606L164.225 146.936C164.297 147.076 164.363 147.207 164.422 147.331C164.482 147.45 164.534 147.572 164.578 147.696C164.622 147.572 164.671 147.45 164.727 147.331C164.783 147.207 164.845 147.076 164.913 146.936L166.868 143.606C166.904 143.538 166.953 143.477 167.017 143.421C167.081 143.365 167.163 143.337 167.262 143.337H168.285L165.146 148.491Z" fill="#E9E9E9"/>
<g clip-path="url(#clip0_28_16)">
<path fill-rule="evenodd" clip-rule="evenodd" d="M103.075 23.9416C108.122 21.0061 110.598 17.1984 110.437 11.3167C110.416 7.54093 110.405 3.77578 110.405 0C103.854 6.73613 92.4885 16.8688 81.6422 26.0582C73.3808 33.0577 70.563 38.6087 80.657 49.8829C75.749 43.5332 77.4207 38.7257 84.3219 34.7904C90.5158 31.2379 96.9026 27.5366 103.075 23.9416Z" fill="url(#paint0_linear_28_16)"/>
<path d="M70.3481 52.2334C73.4451 52.7333 79.0496 53.3821 80.657 49.8829C70.563 38.6087 73.3808 33.0577 81.6422 26.0582C92.4885 16.8688 103.854 6.73613 110.405 0C97.9384 9.26041 85.4971 18.5421 73.0807 27.8451C69.0405 31.452 66.5316 36.4475 66.0617 41.8208C65.8688 45.5646 66.8761 50.1062 70.3481 52.2334Z" fill="url(#paint1_linear_28_16)"/>
<path d="M80.6368 49.8828C80.6368 49.8828 79.8866 49.2765 78.6436 48.181C72.7712 42.98 65.0984 34.9392 73.0605 27.845C70.5059 29.8062 68.247 32.1199 66.3522 34.7158C60.7477 42.1929 61.8193 54.2435 62.0872 63.2203C62.2158 67.5492 67.3595 68.5383 70.6601 66.7727C74.2285 64.8795 78.0649 62.7523 81.5476 60.8804C86.8949 58.0193 84.3231 52.7758 80.6368 49.8828Z" fill="url(#paint2_linear_28_16)"/>
<path fill-rule="evenodd" clip-rule="evenodd" d="M69.633 76.579C64.5857 79.5358 62.1103 83.3329 62.2711 89.2146C62.2925 92.9939 62.3032 96.7661 62.3032 100.531C69.5866 93.3029 76.3545 87.2407 88.9223 75.9835C91.3002 73.8535 95.0427 71.3647 95.8869 70.582C102.065 64.8546 96.2399 54.8192 92.0725 50.6378C96.9911 56.9768 95.3087 61.795 88.4183 65.7303C82.1922 69.2827 75.8162 72.984 69.633 76.579Z" fill="url(#paint3_linear_28_16)"/>
<path d="M102.381 48.2872C99.2951 47.7767 93.6799 47.1279 92.0725 50.6378C96.2399 54.8192 102.065 64.8546 95.8869 70.582C95.0427 71.3647 91.3002 73.8535 88.9223 75.9835C76.3545 87.2407 69.5866 93.3029 62.3032 100.531C74.7696 91.2709 87.2181 81.9927 99.6487 72.6969C103.696 69.0821 106.206 64.0739 106.668 58.6892C106.861 54.9454 105.853 50.4144 102.381 48.2872Z" fill="url(#paint4_linear_28_16)"/>
<path d="M92.0736 50.659C92.0736 50.659 92.8237 51.2547 94.0668 52.3608C99.9499 57.5618 107.612 65.592 99.6498 72.6968C102.199 70.7301 104.458 68.4172 106.358 65.826C111.995 58.3808 110.902 46.2876 110.645 37.3109C110.516 32.9926 105.383 31.9929 102.072 33.7584C98.4711 35.6623 94.6347 37.7895 91.152 39.6508C85.8154 42.5438 88.4515 47.7554 92.0736 50.659Z" fill="url(#paint5_linear_28_16)"/>
</g>
<defs>
<linearGradient id="paint0_linear_28_16" x1="123.841" y1="26.2404" x2="72.232" y2="36.7798" gradientUnits="userSpaceOnUse">
<stop stop-color="#6219FF"/>
<stop offset="1" stop-color="#190050"/>
</linearGradient>
<linearGradient id="paint1_linear_28_16" x1="110.55" y1="2.68663e-06" x2="71.3228" y2="36.7652" gradientUnits="userSpaceOnUse">
<stop stop-color="#1F025C"/>
<stop offset="0.447917" stop-color="#8951FF"/>
<stop offset="0.651042" stop-color="#AB83FF"/>
<stop offset="1" stop-color="#4400D6"/>
</linearGradient>
<linearGradient id="paint2_linear_28_16" x1="88.7703" y1="48.9681" x2="61.7997" y2="47.1327" gradientUnits="userSpaceOnUse">
<stop offset="0.06" stop-color="#DDDDDD"/>
<stop offset="0.28" stop-color="#F7F7F7"/>
<stop offset="0.64" stop-color="#D6D6D6"/>
<stop offset="1" stop-color="#939393"/>
</linearGradient>
<linearGradient id="paint3_linear_28_16" x1="62.1741" y1="81.4408" x2="104.221" y2="59.6312" gradientUnits="userSpaceOnUse">
<stop stop-color="#FF0101"/>
<stop offset="0.432292" stop-color="#FF5151"/>
<stop offset="0.723958" stop-color="#EE3737"/>
<stop offset="1" stop-color="#7C0101"/>
</linearGradient>
<linearGradient id="paint4_linear_28_16" x1="62.1599" y1="98.9978" x2="98.9933" y2="70.4089" gradientUnits="userSpaceOnUse">
<stop stop-color="#5C0000"/>
<stop offset="1" stop-color="#FF0000"/>
<stop offset="1" stop-color="#FF0000"/>
</linearGradient>
<linearGradient id="paint5_linear_28_16" x1="112.832" y1="45.0112" x2="90.6921" y2="59.1782" gradientUnits="userSpaceOnUse">
<stop offset="0.06" stop-color="#DFDFDF"/>
<stop offset="0.286458" stop-color="#F7F7F7"/>
<stop offset="0.64" stop-color="#D0D0D0"/>
<stop offset="0.993848" stop-color="#8F8F8F"/>
</linearGradient>
<clipPath id="clip0_28_16">
<rect width="49.0689" height="100.531" fill="white" transform="translate(61.8184)"/>
</clipPath>
</defs>
</svg>
